<svg xmlns="http://www.w3.org/2000/svg" width="120" height="42" version="1.0" viewBox="0 0 90 31.5"><defs><clipPath id="a"><path d="M25.371 5.465h7.344v7.066H25.37Zm0 0"/></clipPath><clipPath id="b"><path d="m29.508 5.832.187.578a2.032 2.032 0 0 0 1.934 1.402h.598c.21 0 .394.133.457.333a.48.48 0 0 1-.172.539l-.489.351a2.036 2.036 0 0 0-.738 2.274l.188.578a.488.488 0 0 1-.176.539.475.475 0 0 1-.563-.004l-.488-.352a2.022 2.022 0 0 0-2.387 0l-.488.352a.475.475 0 0 1-.562.004.488.488 0 0 1-.176-.54l.187-.577a2.036 2.036 0 0 0-.738-2.274l-.488-.351a.48.48 0 0 1-.172-.54.478.478 0 0 1 .457-.332h.601c.88 0 1.66-.566 1.93-1.402l.188-.578a.475.475 0 0 1 .457-.332c.207 0 .39.133.453.332Zm0 0"/></clipPath></defs><path fill="#e46e06" d="m15.12 22.221-1.36-1.515c-.461.28-.965.5-1.516.656a6.366 6.366 0 0 1-1.734.234c-1.18 0-2.215-.27-3.11-.812a5.746 5.746 0 0 1-2.109-2.282c-.512-.968-.766-2.086-.766-3.359 0-1.27.254-2.383.766-3.344a5.772 5.772 0 0 1 2.11-2.281c.906-.55 1.945-.828 3.124-.828 1.188 0 2.227.277 3.125.828.895.543 1.598 1.297 2.11 2.266.508.968.765 2.09.765 3.359a7.32 7.32 0 0 1-.437 2.563 6.163 6.163 0 0 1-1.188 2.03l1.313 1.485Zm-.376-7.078c0-.969-.18-1.812-.531-2.531-.344-.727-.836-1.29-1.469-1.688-.625-.394-1.367-.593-2.219-.593-.843 0-1.586.199-2.218.593-.625.399-1.118.961-1.47 1.688-.355.719-.53 1.562-.53 2.531 0 .969.175 1.82.53 2.547a4.13 4.13 0 0 0 1.47 1.687c.632.399 1.375.594 2.218.594.79 0 1.493-.18 2.11-.547l-1.64-1.843 1.093-1 1.656 1.859a4.48 4.48 0 0 0 .735-1.453 6.148 6.148 0 0 0 .265-1.844Zm9.506-2.187h1.595v8.437h-1.438l-.172-1.281c-.25.437-.636.797-1.156 1.078a3.595 3.595 0 0 1-1.703.406c-.98 0-1.734-.305-2.266-.922-.531-.613-.797-1.437-.797-2.468v-5.25h1.61v4.703c0 .918.18 1.57.547 1.953.363.375.859.562 1.484.562.738 0 1.305-.234 1.703-.703.395-.469.594-1.156.594-2.062Zm4.742-2.016c-.293 0-.547-.102-.766-.313a1.009 1.009 0 0 1-.312-.75c0-.3.101-.554.312-.765a1.08 1.08 0 0 1 .766-.313 1 1 0 0 1 .75.313c.207.21.312.465.312.765 0 .293-.105.543-.312.75a.988.988 0 0 1-.75.313Zm-.797 10.453v-8.437h1.625v8.437Zm3.423-4.219c0-.883.172-1.66.516-2.328a3.843 3.843 0 0 1 1.453-1.562c.633-.383 1.36-.578 2.172-.578 1.063 0 1.938.28 2.625.843.695.555 1.125 1.305 1.281 2.25H38.04c-.136-.539-.406-.945-.812-1.218-.406-.282-.883-.422-1.422-.422-.773 0-1.398.273-1.875.812-.469.543-.703 1.274-.703 2.188 0 .918.223 1.648.672 2.187.457.531 1.07.797 1.843.797.57 0 1.063-.14 1.47-.422.413-.289.695-.68.843-1.172h1.625a3.487 3.487 0 0 1-.719 1.61c-.367.46-.824.812-1.375 1.062a4.432 4.432 0 0 1-1.844.375c-.835 0-1.558-.183-2.171-.547a3.722 3.722 0 0 1-1.438-1.547c-.344-.664-.516-1.441-.516-2.328Zm11.422 4.219h-1.625V8.69h1.625v8.234l3.75-3.968h2.031l-3.219 3.359 3.203 5.078h-1.859l-2.469-3.906-1.437 1.5Zm9.05 0h-1.656V8.909h1.656l4.297 10.5 4.297-10.5h1.688v12.484h-1.657v-4.937a82.697 82.697 0 0 1 .047-3.125c.02-.333.04-.645.063-.938l-3.64 9H55.59l-3.625-8.953c.051.293.082.75.094 1.375.02.625.031 1.375.031 2.25Zm16.659 0-4.75-12.484h1.812l3.047 7.984c.133.355.266.719.39 1.094.126.367.25.781.376 1.25.156-.5.3-.946.437-1.344.133-.406.254-.75.36-1.031l3.015-7.953h1.766l-4.688 12.484Zm12.923-4.453h-3.156v4.453h-1.688V8.909h4.844c.82 0 1.535.168 2.14.5a3.467 3.467 0 0 1 1.391 1.406c.332.594.5 1.293.5 2.094 0 .773-.168 1.464-.5 2.078a3.609 3.609 0 0 1-1.406 1.437c-.594.344-1.304.516-2.125.516Zm-.281-6.516h-2.875v5h2.797c.844 0 1.488-.226 1.937-.687.446-.457.672-1.07.672-1.844 0-.781-.226-1.383-.672-1.812-.449-.438-1.07-.657-1.86-.657Zm0 0"/><g clip-path="url(#a)"><g clip-path="url(#b)"><path fill="#d9d9d9" d="M24.402 4.426h9.317v8.867h-9.317Zm0 0"/></g></g></svg>